<?xml version="1.0" encoding="UTF-8"?>
<svg width="238px" height="47px" viewBox="0 0 238 47" version="1.1" xmlns="http://www.w3.org/2000/svg" xmlns:xlink="http://www.w3.org/1999/xlink">
    <g id="" stroke="none" stroke-width="1" fill="none" fill-rule="evenodd">
        <g id="">
            <g id="">
                <path d="M106.000212,18.8576691 L92.022393,0 L84,0 L101.988803,24.2708318 L85.1461167,47 L93.1685097,47 L106.000212,29.6837114 L110.011197,24.2708318 L128,0 L119.977607,0 L106.000212,18.8576691 Z M157,30 L165.497838,9 L174,30 L157,30 Z M162.108933,0 L143,47 L149.963023,47 L154.35507,36.2095643 L176.640397,36.2095643 L181.03202,47 L188,47 L168.891208,0 L162.108933,0 Z M114.317104,30.5753098 C112.581768,32.8422326 112.559186,35.933631 114.261373,38.2240742 L120.782633,47 L129,47 L115.522777,29 L114.317104,30.5753098 Z M212.540731,40.5498494 L212.540731,0 L206,0 L206,47 L238,47 L238,40.5498494 L212.540731,40.5498494 Z M59,47 L64.9965789,47 L65,0 L59,0 L59,47 Z M28.089188,17.8539393 C26.8706747,19.1460198 25.2403231,19.9063876 23.4874456,20 C22.74653,19.9955559 17.347246,19.9915419 7,19.9915419 L7,6 L23.1367296,6 C26.91887,6 30,9.13909767 30,13.0022937 C30,14.8223597 29.3209093,16.543509 28.089188,17.8539393 L28.089188,17.8539393 Z M23.1367296,41 L7,41 L7,27.0088882 L10.5234593,27.0088882 C16.2252639,27.0044441 22.6766959,27.0044441 23.4874456,27 C25.2403231,27.0895984 26.8706747,27.8541236 28.089188,29.1464908 C29.3209093,30.456491 30,32.1777837 30,33.9977063 C30,37.8609023 26.91887,41 23.1367296,41 L23.1367296,41 Z M34.9470967,18.5714028 C35.6430525,16.9203283 36,15.1677778 36,13.3665414 C36,11.565588 35.6430525,9.8174249 34.9470967,8.16196309 C34.2728939,6.56863241 33.3125115,5.14258871 32.0919403,3.91525138 C30.8669902,2.68833863 29.4397652,1.72580159 27.8489687,1.05495531 C26.201247,0.357360097 24.4567666,0 22.6590337,0 L0,0 L0,47 L22.6590337,47 C24.4567666,47 26.201247,46.6423568 27.8489687,45.9450447 C29.4397652,45.2739153 30.8626114,44.3116614 32.0919403,43.084324 C33.3125115,41.8572698 34.2772727,40.4271217 34.9470967,38.8376123 C35.6430525,37.1869625 35.9956211,35.434412 35.9956211,33.633034 C35.9956211,31.8276933 35.6430525,30.0796717 34.9470967,28.4285972 C34.2772727,26.8390878 33.3164666,25.4092229 32.0919403,24.1818855 C31.8540695,23.9434096 31.6118198,23.7183789 31.3560097,23.4978771 C31.6118198,23.2816211 31.8540695,23.0517784 32.0919403,22.8178314 C33.3125115,21.5907771 34.2772727,20.1604876 34.9470967,18.5714028 L34.9470967,18.5714028 Z" fill="#000"></path>
            </g>
        </g>
    </g>
</svg>
